<?xml version="1.0" encoding="utf-8"?>
<!-- Generator: Adobe Illustrator 26.0.1, SVG Export Plug-In . SVG Version: 6.00 Build 0)  -->
<svg version="1.1" id="Calque_1" xmlns="http://www.w3.org/2000/svg" xmlns:xlink="http://www.w3.org/1999/xlink" x="0px" y="0px"
	 viewBox="0 0 30.6 30.2" style="enable-background:new 0 0 30.6 30.2;" xml:space="preserve">
<style type="text/css">
	.st0{fill:#FFFFFF;}
	.st1{fill:#656B92;}
	.st2{fill:#AC6600;}
	.st3{opacity:0.94;fill:#07075F;}
	.st4{fill:#E58800;}
	.st5{fill:none;}
	.st6{opacity:2.000000e-02;}
	.st7{opacity:2.000000e-02;fill:#FAF6E7;}
</style>
<path class="st0" d="M28,25.7"/>
<path class="st0" d="M13.2,24.3"/>
<path class="st0" d="M100.6,124.3"/>
<path class="st0" d="M13.4,19.8"/>
<g>
	<g>
		<path class="st1" d="M153.1,236.7c0.1,0,0.1-0.1,0-0.1C153,236.6,153,236.7,153.1,236.7L153.1,236.7z"/>
	</g>
</g>
<path class="st2" d="M14.4,19.7"/>
<path class="st0" d="M25.9,4.4"/>
<path class="st0" d="M14.3,15.5"/>
<path class="st3" d="M23.5,15.8c-0.2,5.5-5.1,9.8-10.7,9.2c-4.7-0.5-8.4-4.5-8.5-9.3C4.1,10,8.8,5.6,14.3,5.8
	c1.5,0.1,2.9,0.5,4.2,1.2C21.6,8.7,23.7,12,23.5,15.8z"/>
<path class="st2" d="M19.3,8.8c0,0-1.2-0.2-2-0.1c-0.6,0.1,0.6-0.1-0.1,1.1c-0.3,0.5-1.1,0.5-1.6,0.6c-0.8,0.1-0.9,0.4-0.8,1
	c0.1,0.4,0.1,0,0.1,0.5c0,0.4,0.3,0.4,0.7,0.7c0.7,0.6,1.1,0.8,1.9,0.6c0.6-0.2,0.7-0.6,1.5,0.3c0.8,0.9,0.4,1.8,1.5,2.5
	c1.2,0.7,0.9,1.2,0.7,3.3c-0.1,2.1,0.2,2.3,0.2,2.2c0.1-0.2,2.2-4.5,1.3-5.7s-1.9-1-2.3-1.8c-0.4-0.8-0.9-1.1-0.4-1.8
	c0.5-0.7,0.9-1.5,1.4-1.9c0.5-0.4,0.5-0.4,0.5-0.4S20.9,9.7,19.3,8.8z"/>
<path class="st4" d="M21.2,9.2c0,0-1.8-0.5-2.7-0.6C17.2,8.4,17,8.4,15,8.8c-1.2,0.2-0.8,0.4-0.7,1.3c0.1,0.6,0.3,1.3,0.5,1.7
	c0,0.1,0.2,0.7,0.5,0.9c0.7,0.4,0.3,0.9,0.9,0.8c0.6-0.1,1.8-0.3,2.6,0.6c0.8,0.9,0.1,1.5,1.2,2.1c1.1,0.6,1.4,0.7,1.2,2.7
	s0,2.8,0.2,2.6c0.1-0.2,1.6-4.7,0.8-5.8s-1.8-0.9-2.1-1.7c-0.4-0.8-0.8-1.3-0.3-1.9s0.8-1.4,1.3-1.7c0.5-0.4,1.2,0.3,1.2,0.3
	s0,0-0.3-0.4c-0.1-0.1-0.2-0.3-0.3-0.4c-0.1-0.1-0.2-0.3-0.4-0.5C21.3,9.3,21.3,9.2,21.2,9.2z"/>
<path class="st2" d="M13.9,5.9c-0.3-0.1-0.8-0.2-1.9,0.2c-0.3,0.1-0.8,0.1-1.3,0.3C10.4,6.5,10,6.8,9.6,7c-3.5,1.9-4.7,5.8-5,7.9
	s0.7,4.8,1.1,5.6S6.4,18,6.5,17s0-3.1,0.8-4c0.9-0.9,2.4,1,3.7,2.5s2.7,0.2,2.9-1.4c0.2-1.6-3.1-4.5-1.6-5.5
	c0.5-0.3,4.2-0.9,5.1-0.9c0.6,0,1.2,0,1.3,0c0.7,0-2.7-1.5-2.5-1.7L13.9,5.9L13.9,5.9"/>
<path class="st4" d="M20,8c-0.2-0.1-0.4-0.3-0.6-0.4c-0.3-0.2-0.6-0.4-0.7-0.5C18.6,7,18.3,6.8,18,6.7c-0.5-0.2-1.1-0.5-1.7-0.6
	c-0.7-0.2-1.5-0.3-1.8-0.3c-0.6,0-1.1,0-1.3,0c-0.3,0-0.8,0.1-1.3,0.2c-0.3,0.1-0.8,0.2-1.2,0.3c-0.3,0.1-0.5,0.2-0.8,0.3
	C9.6,6.8,9,7.1,8.6,7.4C8.4,7.5,8.1,7.7,7.9,7.9C7.4,8.3,7,8.7,6.6,9.1C6.4,9.4,6.1,9.7,5.9,10c-0.4,0.5-0.7,1.1-0.9,1.7
	c-0.1,0.2-0.2,0.5-0.3,0.7c-0.1,0.4-0.2,0.7-0.3,1.1c-0.1,0.6-0.2,1.3-0.2,1.8c0,0.6,0,1.2,0.1,1.8c0.1,0.4,0.2,0.8,0.3,1.1
	c0.1,0.3,0.2,0.6,0.3,0.8c0.2,0.7,0.6,1.3,0.8,1.6c0.5,0.7,0.5-2.3,0.5-3.3c0.1-1-0.1-2.9,0.7-3.7c0.8-0.9,2.2,0.9,3.5,2.2
	s2.5,0.1,2.7-1.4c0.1-1.5-1.8-3.8-1.5-5.4c0.1-0.8,2.3-0.8,4.3-1.1c1.4-0.2,2.3-0.1,3,0.1c0.2,0,0.5,0.2,0.7,0.2l0.5,0.2
	c0,0,0.2,0,0.3,0.1s0.1,0.1,0.2,0.1C20.6,8.5,20,8,20,8z"/>
<path class="st2" d="M22.7,12.1c0.3,1,0.8,3.8,0.6,4.5c-0.1,0.3-0.1,0-0.3-0.5c-0.4-1.2-2.4-1.6-2.6-2.6c-0.1-0.3-0.6-0.7-0.3-1.1
	c0.6-0.7,1.1-1.9,1.6-1.7C22.5,11,22.7,12.1,22.7,12.1z"/>
<path class="st5" d="M10.8,20.7c0.8,1.1,1.8,2.4,0.6,2.4c-1.2,0-2.3-0.4-2.4-1.4c-0.1-1,0-1.9,0.7-1.7
	C10.4,20.4,10.8,20.7,10.8,20.7z"/>
<path class="st2" d="M8.8,23.6c0,0-0.3-0.2-0.7-0.5C8,23,7.8,22.9,7.6,22.8c-0.1-0.1-0.3-0.2-0.4-0.3c-0.4-0.3-0.4-0.8-0.1-1.4
	c0.7-1.2-1.4-4.1,0.3-5.3c1-0.7,1.5-0.7,2-0.1c0.4,0.5,1,0.6,2,1.5c2.1,2,2.5,4.7,2.6,5c0.1,0.4,0.2,2.8,0.2,2.8s-0.5,0-1.1,0
	c-0.3,0-1-0.1-1.4-0.2c-0.4-0.1-0.7-0.2-1-0.3c-0.2-0.1-0.3-0.1-0.4-0.2c-0.1,0-0.6-0.2-0.6-0.3C9.4,24,9.4,24,9.2,23.9
	C9,23.7,8.8,23.6,8.8,23.6z"/>
<path class="st4" d="M9.2,23.8c0,0-0.3-0.2-0.7-0.4c-0.2-0.1-0.3-0.2-0.5-0.4c-0.1-0.1-0.2-0.2-0.3-0.3c-0.4-0.3-0.4-1-0.1-1.5
	C8.1,20,6,17.1,7.7,15.8c1.2-0.9,1.2,0,2.2,0.6c0.6,0.4,1,0.3,1.8,0.9c0.9,0.8,1.4,1.9,1.8,2.8c0.5,1.2,0.7,1.5,0.7,1.8
	c0.1,0.2,0.2,1.4,0.2,2.1c0,0.6,0,1.1,0,1.1s0.1,0-0.2,0c-0.1,0-0.2,0-0.3,0c-0.1,0-0.2,0-0.3,0c-0.2,0-0.5,0-0.9-0.1
	c-0.2,0-0.4-0.1-0.5-0.1c-0.4-0.1-0.7-0.1-1-0.2c-0.2-0.1-0.3-0.1-0.4-0.1c-0.1,0-0.6-0.2-0.6-0.2c-0.3-0.1-0.4-0.2-0.6-0.3
	C9.3,23.9,9.2,23.8,9.2,23.8z"/>
<path class="st4" d="M14.7,25c0,0,0.3-2.7-0.3-4.3c-0.6-1.6-2.8-3.9-0.7-3.5c0.8,0.2,0.5-3.1,1.6-3.2c0.5-0.1,0.9-0.3,1.4-0.3
	c0.4,0,0.8,0,1,0.1c0.5,0.3,1,0.4,1,1.2c0,0.3,0.3,1,0.8,1.3c0.4,0.3,0.9,0.4,1.1,1.1c0.2,0.8,0,1.7,0,2.5c0,1.1,0.4,1.9,0.3,1.9
	c0,0.1-0.4,0.4-0.8,0.8c-0.2,0.2-0.5,0.4-0.7,0.5c-0.2,0.1-0.2,0.2-0.2,0.2s-0.5,0.4-1.7,0.9c-0.1,0-0.6,0.2-0.7,0.2
	c-0.1,0-0.2,0.1-0.4,0.1c-0.3,0.1-0.6,0.2-0.7,0.2c-0.1,0-0.3,0.1-0.5,0.1C15,25,14.7,25,14.7,25z"/>
<path class="st6" d="M4.6,18.4c0,0-0.4-2.1-0.4-3.1c0.1-1,0.3-2.3,0.5-3"/>
<path class="st7" d="M23.2,12.5c0,0,0.4,2.1,0.4,3.1c-0.1,1-0.3,2.3-0.5,3"/>
</svg>
